<svg id="Layer_1" enable-background="new 0 0 129 129" height="512" viewBox="0 0 129 129" width="512" xmlns="http://www.w3.org/2000/svg"><g><g id="XMLID_343_"><g><circle cx="64.5" cy="66.4" fill="#e1e0e2" r="62.1"/></g></g><g><g><g><g><path d="m90.4 27.1c0 18.7-25.9 48.9-25.9 48.9s-25.9-30.2-25.9-48.9c0-14.3 11.6-25.9 25.9-25.9s25.9 11.6 25.9 25.9z" fill="#f26a64"/></g><g><path d="m64.5 76.7c-.2 0-.4-.1-.6-.3-1.1-1.2-26.1-30.6-26.1-49.3 0-14.7 12-26.6 26.6-26.6 14.7 0 26.6 12 26.6 26.6 0 18.7-25 48.1-26.1 49.3 0 .2-.2.3-.4.3zm0-74.7c-13.9 0-25.2 11.3-25.2 25.1 0 16.7 21.4 43.2 25.2 47.7 3.7-4.5 25.2-31.1 25.2-47.7 0-13.8-11.3-25.1-25.2-25.1z" fill="#313d65"/></g></g><g><g><circle cx="64.5" cy="27.1" fill="#fff" r="16.3"/></g><g><path d="m64.5 44.2c-9.4 0-17-7.6-17-17s7.6-17 17-17 17 7.6 17 17-7.6 17-17 17zm0-32.6c-8.6 0-15.6 7-15.6 15.6s7 15.6 15.6 15.6 15.6-7 15.6-15.6-7-15.6-15.6-15.6z" fill="#313d65"/></g></g><g><g><path d="m77.7 17.5c-10.7-7.8-25.9-.2-25.9 13.2 0 3.6 1.2 6.9 3.1 9.6-4.1-3-6.7-7.8-6.7-13.2 0-9 7.3-16.3 16.3-16.3 5.4 0 10.2 2.7 13.2 6.7z" fill="#dfdfd2"/></g></g><g><g><path d="m64.5 44.2c-9.4 0-17-7.6-17-17s7.6-17 17-17 17 7.6 17 17-7.6 17-17 17zm0-32.6c-8.6 0-15.6 7-15.6 15.6s7 15.6 15.6 15.6 15.6-7 15.6-15.6-7-15.6-15.6-15.6z" fill="#313d65"/></g></g></g><g><g><path d="m64.5 76.7c-.1 0-.2 0-.3-.1l-38.5-21c-.4-.2-.5-.6-.3-1s.6-.5 1-.3l38.5 21c.4.2.5.6.3 1-.2.3-.4.4-.7.4z" fill="#313d65"/></g></g><g><g><path d="m64.5 76.7c-.3 0-.5-.1-.6-.4-.2-.4-.1-.8.3-1l38.5-21c.4-.2.8-.1 1 .3s.1.8-.3 1l-38.5 21c-.2.1-.3.1-.4.1z" fill="#313d65"/></g></g><g><g><circle cx="103" cy="55" fill="#b8b8ba" r="8.3"/></g><g><path d="m103 64c-5 0-9-4.1-9-9 0-5 4.1-9 9-9s9 4.1 9 9c0 5-4.1 9-9 9zm0-16.6c-4.2 0-7.6 3.4-7.6 7.6s3.4 7.6 7.6 7.6 7.6-3.4 7.6-7.6c-.1-4.2-3.5-7.6-7.6-7.6z" fill="#313d65"/></g></g><g><g><g><path d="m106.3 89-42-12.3c-.4-.1-.6-.5-.5-.9s.5-.6.9-.5l42 12.3c.4.1.6.5.5.9s-.5.7-.9.5z" fill="#313d65"/></g></g><g><g><circle cx="106.5" cy="88.3" fill="#6dc392" r="8.3"/></g><g><path d="m106.5 97.4c-5 0-9-4.1-9-9 0-5 4.1-9 9-9 5 0 9 4.1 9 9 .1 4.9-4 9-9 9zm0-16.6c-4.2 0-7.6 3.4-7.6 7.6s3.4 7.6 7.6 7.6 7.6-3.4 7.6-7.6-3.4-7.6-7.6-7.6z" fill="#313d65"/></g></g></g><g><g><g><path d="m84.9 115.1-21-38.5c-.2-.4-.1-.8.3-1s.8-.1 1 .3l21 38.5c.2.4.1.8-.3 1s-.8.1-1-.3z" fill="#313d65"/></g></g><g><g><circle cx="85.5" cy="114.8" fill="#f26a64" r="8.3"/></g><g><path d="m79.1 121.1c-3.5-3.5-3.5-9.2 0-12.8 3.5-3.5 9.2-3.5 12.8 0 3.5 3.5 3.5 9.3 0 12.8-3.5 3.6-9.2 3.6-12.8 0zm1.1-11.7c-3 3-3 7.8 0 10.7 3 3 7.8 3 10.7 0 3-3 3-7.8 0-10.7-3-3-7.8-3-10.7 0z" fill="#313d65"/></g></g></g><g><g><g><path d="m43.1 115.4c-.4-.2-.5-.6-.3-1l21-38.5c.2-.4.6-.5 1-.3s.5.6.3 1l-21 38.5c-.2.4-.6.5-1 .3z" fill="#313d65"/></g></g><g><g><circle cx="43.5" cy="114.8" fill="#97d9ec" r="8.3"/></g><g><path d="m37.1 121.1c-3.5-3.5-3.5-9.2 0-12.8 3.5-3.5 9.2-3.5 12.8 0 3.5 3.5 3.5 9.2 0 12.8-3.6 3.6-9.3 3.6-12.8 0zm1-11.7c-3 3-3 7.8 0 10.7 3 3 7.8 3 10.7 0 3-3 3-7.8 0-10.7-2.9-3-7.7-3-10.7 0z" fill="#313d65"/></g></g></g><g><g><g><path d="m21.8 88.5c-.1-.4.1-.8.5-.9l42-12.3c.4-.1.8.1.9.5s-.1.8-.5.9l-42 12.3c-.4.2-.8-.1-.9-.5z" fill="#313d65"/></g></g><g><g><circle cx="22.5" cy="88.3" fill="#7e97ab" r="8.3"/></g><g><path d="m22.5 97.4c-5 0-9-4.1-9-9 0-5 4.1-9 9-9s9 4.1 9 9-4.1 9-9 9zm0-16.6c-4.2 0-7.6 3.4-7.6 7.6s3.4 7.6 7.6 7.6 7.6-3.4 7.6-7.6-3.5-7.6-7.6-7.6z" fill="#313d65"/></g></g></g><g><g><circle cx="26" cy="55" fill="#f0de6e" r="8.3"/></g><g><path d="m26 64c-5 0-9-4.1-9-9 0-5 4.1-9 9-9s9 4.1 9 9c.1 5-4 9-9 9zm0-16.6c-4.2 0-7.6 3.4-7.6 7.6s3.4 7.6 7.6 7.6 7.6-3.4 7.6-7.6-3.4-7.6-7.6-7.6z" fill="#313d65"/></g></g></g></g></svg>